<svg width="396" height="63" viewBox="0 0 396 63" fill="none" xmlns="http://www.w3.org/2000/svg">
<g clip-path="url(#clip0)">
<path fill-rule="evenodd" clip-rule="evenodd" d="M146.544 32.5467C146.544 31.5876 146.385 30.8071 146.067 30.2065C145.75 29.6075 145.312 29.1368 144.757 28.7978C144.201 28.4572 143.515 28.2268 142.701 28.1075C141.887 27.9875 140.983 27.9274 139.99 27.9274C137.846 27.9274 135.563 28.3474 133.14 29.187C132.584 28.1471 132.167 27.1667 131.89 26.247C131.612 25.3274 131.472 24.2275 131.472 22.947C133.22 22.3476 134.967 21.9077 136.714 21.6278C138.461 21.3475 140.091 21.2075 141.599 21.2075C145.729 21.2075 148.956 22.2072 151.279 24.2075C153.603 26.2077 154.764 29.4068 154.764 33.8067V51.8055C153.374 52.2453 151.686 52.6657 149.7 53.0656C147.715 53.4656 145.471 53.6659 142.969 53.6659C140.944 53.6659 139.087 53.4855 137.399 53.1256C135.711 52.7657 134.261 52.1652 133.051 51.3254C131.839 50.4863 130.906 49.406 130.25 48.0861C129.596 46.7656 129.268 45.1462 129.268 43.2261C129.268 41.3067 129.675 39.6968 130.489 38.3968C131.303 37.0968 132.356 36.0564 133.646 35.277C134.937 34.4967 136.377 33.937 137.965 33.5968C139.554 33.2568 141.142 33.0869 142.731 33.0869C143.883 33.0869 145.153 33.1473 146.544 33.2665V32.5467V32.5467ZM146.544 38.7269C146.067 38.6468 145.551 38.5762 144.994 38.5168C144.438 38.457 143.943 38.427 143.505 38.427C141.559 38.427 140.02 38.7764 138.888 39.4767C137.756 40.1766 137.191 41.3067 137.191 42.8662C137.191 43.9068 137.409 44.706 137.846 45.2665C138.283 45.826 138.809 46.236 139.425 46.4956C140.04 46.756 140.695 46.916 141.39 46.9762C142.086 47.0357 142.691 47.0667 143.207 47.0667C143.803 47.0667 144.399 47.016 144.994 46.916C145.59 46.8159 146.106 46.7265 146.544 46.646V38.7269ZM160.404 28.4071H156.531L156.233 27.207L167.373 12.8677H168.743V21.9273H175.951C176.07 22.5275 176.15 23.0674 176.19 23.5472C176.229 24.0277 176.249 24.527 176.249 25.0475C176.249 25.6072 176.229 26.1471 176.19 26.6672C176.15 27.1875 176.07 27.7673 175.951 28.4071H168.743V40.5869C168.743 41.8263 168.843 42.8261 169.042 43.5865C169.24 44.3454 169.528 44.9459 169.905 45.3862C170.283 45.826 170.749 46.1259 171.305 46.2859C171.861 46.4467 172.517 46.5264 173.27 46.5264C173.867 46.5264 174.452 46.4762 175.028 46.3761C175.604 46.2763 176.11 46.1862 176.547 46.1064C176.826 46.8654 177.023 47.6557 177.143 48.476C177.262 49.2959 177.321 50.0264 177.321 50.6661C177.321 51.1061 177.312 51.4756 177.292 51.776C177.272 52.0754 177.243 52.3665 177.202 52.6457C175.376 53.0863 173.49 53.3053 171.544 53.3053C167.929 53.3053 165.169 52.4559 163.263 50.7566C161.357 49.0562 160.404 46.2859 160.404 42.4464V28.4071V28.4071ZM182.753 28.4071H178.882L178.583 27.207L189.723 12.8677H191.093V21.9273H198.301C198.42 22.5275 198.5 23.0674 198.54 23.5472C198.579 24.0277 198.599 24.527 198.599 25.0475C198.599 25.6072 198.579 26.1471 198.54 26.6672C198.5 27.1875 198.42 27.7673 198.301 28.4071H191.093V40.5869C191.093 41.8263 191.194 42.8261 191.392 43.5865C191.59 44.3454 191.878 44.9459 192.255 45.3862C192.633 45.826 193.099 46.1259 193.655 46.2859C194.211 46.4467 194.867 46.5264 195.621 46.5264C196.217 46.5264 196.802 46.4762 197.378 46.3761C197.954 46.2763 198.461 46.1862 198.897 46.1064C199.176 46.8654 199.374 47.6557 199.492 48.476C199.612 49.2959 199.672 50.0264 199.672 50.6661C199.672 51.1061 199.662 51.4756 199.642 51.776C199.622 52.0754 199.593 52.3665 199.553 52.6457C197.726 53.0863 195.84 53.3053 193.893 53.3053C190.28 53.3053 187.519 52.4559 185.613 50.7566C183.707 49.0562 182.753 46.2859 182.753 42.4464V28.4071V28.4071ZM221.884 34.1075C221.805 32.1868 221.278 30.6372 220.305 29.4572C219.332 28.2774 217.972 27.6867 216.225 27.6867C214.239 27.6867 212.73 28.247 211.697 29.3668C210.665 30.4868 210.05 32.0671 209.851 34.1075H221.884V34.1075ZM209.791 40.0465C209.95 42.4463 210.784 44.1863 212.293 45.2665C213.802 46.3464 215.788 46.8865 218.251 46.8865C219.601 46.8865 220.98 46.756 222.39 46.4956C223.8 46.236 225.14 45.866 226.412 45.3862C226.848 46.1862 227.225 47.1461 227.543 48.2663C227.861 49.3853 228.04 50.586 228.079 51.8657C224.982 53.0656 221.486 53.6659 217.594 53.6659C214.735 53.6659 212.284 53.2658 210.237 52.4655C208.193 51.6659 206.525 50.5552 205.234 49.136C203.943 47.7164 202.99 46.0263 202.375 44.0659C201.759 42.1062 201.452 39.9667 201.452 37.6473C201.452 35.3669 201.769 33.227 202.405 31.2273C203.039 29.2267 203.983 27.4873 205.234 26.0078C206.485 24.527 208.033 23.3573 209.881 22.4975C211.727 21.6374 213.882 21.2075 216.344 21.2075C218.488 21.2075 220.395 21.5871 222.063 22.3476C223.731 23.1073 225.15 24.1473 226.322 25.4679C227.493 26.7869 228.378 28.3574 228.973 30.1772C229.569 31.997 229.867 33.9474 229.867 36.0265C229.867 36.7866 229.837 37.537 229.777 38.2766C229.718 39.0161 229.647 39.6066 229.569 40.0465H209.791V40.0465ZM233.097 21.9273C233.693 21.808 234.259 21.7175 234.795 21.6577C235.332 21.5971 235.916 21.5672 236.552 21.5672C237.148 21.5672 237.734 21.6078 238.309 21.6872C238.886 21.767 239.452 21.8675 240.007 21.9875C240.127 22.1881 240.236 22.4772 240.335 22.8573C240.434 23.2373 240.523 23.6373 240.603 24.0576C240.683 24.4779 240.751 24.8968 240.811 25.3176C240.871 25.7378 240.92 26.0867 240.961 26.3677C241.834 25.1275 242.907 24.0173 244.177 23.0379C245.448 22.0577 247.037 21.5672 248.943 21.5672C249.34 21.5672 249.797 21.5871 250.313 21.6278C250.829 21.6677 251.206 21.7275 251.445 21.808C251.524 22.2072 251.584 22.6674 251.623 23.1874C251.664 23.7071 251.683 24.2474 251.683 24.8075C251.683 25.4875 251.653 26.2273 251.594 27.0273C251.534 27.8271 251.425 28.5869 251.266 29.307C250.829 29.2267 250.343 29.187 249.807 29.187C249.271 29.187 248.943 29.187 248.824 29.187C248.148 29.187 247.394 29.2572 246.56 29.3969C245.726 29.5374 244.932 29.9069 244.177 30.5073C243.422 31.107 242.797 32.0071 242.3 33.2073C241.804 34.4067 241.555 36.0867 241.555 38.2471V53.0061C240.841 53.1256 240.127 53.2057 239.411 53.2455C238.697 53.2858 238.002 53.3053 237.326 53.3053C236.651 53.3053 235.966 53.2858 235.271 53.2455C234.576 53.2057 233.852 53.1256 233.097 53.0061V21.9273V21.9273ZM255.649 21.9273C256.204 21.808 256.761 21.7175 257.316 21.6577C257.872 21.5971 258.488 21.5672 259.163 21.5672C259.838 21.5672 260.434 21.5971 260.95 21.6577C261.466 21.7175 262.003 21.808 262.559 21.9273C262.677 22.1275 262.787 22.4178 262.886 22.7978C262.985 23.1775 263.075 23.5778 263.154 23.9974C263.234 24.4173 263.303 24.8272 263.363 25.2271C263.423 25.6271 263.472 25.9673 263.512 26.247C263.829 25.6478 264.246 25.0475 264.763 24.4472C265.279 23.8478 265.894 23.3082 266.609 22.8277C267.324 22.3476 268.128 21.9576 269.022 21.6577C269.915 21.3574 270.919 21.2075 272.031 21.2075C276.835 21.2075 279.913 23.0479 281.264 26.7275C282.058 25.2474 283.18 23.9579 284.629 22.8573C286.079 21.7574 287.916 21.2075 290.14 21.2075C293.635 21.2075 296.206 22.1781 297.854 24.1182C299.503 26.0572 300.327 29.0873 300.327 33.2073V52.9459C298.897 53.1861 297.486 53.3053 296.097 53.3053C294.707 53.3053 293.297 53.1861 291.867 52.9459V35.4265C291.867 33.2665 291.599 31.6072 291.063 30.4476C290.527 29.2873 289.445 28.7073 287.817 28.7073C287.141 28.7073 286.477 28.8077 285.822 29.0071C285.166 29.2068 284.57 29.5766 284.034 30.1168C283.498 30.6568 283.061 31.4174 282.723 32.3972C282.386 33.3762 282.217 34.6469 282.217 36.2067V52.9459C280.787 53.1861 279.377 53.3053 277.987 53.3053C276.597 53.3053 275.187 53.1861 273.757 52.9459V35.4265C273.757 33.2665 273.49 31.6072 272.953 30.4476C272.417 29.2873 271.335 28.7073 269.707 28.7073C269.033 28.7073 268.357 28.8077 267.681 29.0071C267.007 29.2068 266.401 29.5969 265.865 30.1772C265.328 30.7566 264.901 31.5666 264.584 32.6071C264.266 33.6466 264.107 35.0069 264.107 36.6865V52.9459C262.677 53.1861 261.268 53.3053 259.878 53.3053C258.488 53.3053 257.078 53.1861 255.649 52.9459V21.9273ZM317.554 47.1859C319.778 47.1859 321.377 46.3565 322.349 44.6959C323.322 43.0366 323.809 40.6464 323.809 37.5267C323.809 34.4067 323.322 32.017 322.349 30.3572C321.377 28.6967 319.778 27.8669 317.554 27.8669C315.37 27.8669 313.791 28.6967 312.819 30.3572C311.845 32.017 311.358 34.4067 311.358 37.5267C311.358 40.6464 311.845 43.0366 312.819 44.6959C313.791 46.3565 315.37 47.1859 317.554 47.1859ZM317.554 53.6659C315.052 53.6659 312.878 53.2554 311.031 52.4356C309.185 51.616 307.655 50.4759 306.444 49.0156C305.233 47.5556 304.319 45.8461 303.704 43.8859C303.088 41.926 302.781 39.8069 302.781 37.5267C302.781 35.2468 303.088 33.1065 303.704 31.107C304.319 29.1073 305.233 27.3772 306.444 25.9176C307.655 24.4572 309.185 23.3082 311.031 22.4672C312.878 21.6278 315.052 21.2075 317.554 21.2075C320.056 21.2075 322.24 21.6278 324.107 22.4672C325.973 23.3082 327.522 24.4572 328.754 25.9176C329.985 27.3772 330.898 29.1073 331.494 31.107C332.09 33.1065 332.387 35.2468 332.387 37.5267C332.387 39.8069 332.09 41.926 331.494 43.8859C330.898 45.8461 329.985 47.5556 328.754 49.0156C327.522 50.4759 325.973 51.616 324.107 52.4356C322.24 53.2554 320.056 53.6659 317.554 53.6659V53.6659ZM343.247 39.4467C341.023 38.8063 339.285 37.8565 338.035 36.5966C336.784 35.3371 336.158 33.4466 336.158 30.9265C336.158 27.8867 337.241 25.5077 339.405 23.7876C341.569 22.0676 344.519 21.2075 348.251 21.2075C349.8 21.2075 351.329 21.3475 352.838 21.6278C354.348 21.9077 355.876 22.3273 357.425 22.8876C357.345 23.9268 357.147 25.0069 356.829 26.1273C356.512 27.2469 356.134 28.2268 355.698 29.0677C354.744 28.6672 353.692 28.3172 352.54 28.0169C351.389 27.7176 350.177 27.5673 348.907 27.5673C347.556 27.5673 346.504 27.7772 345.749 28.1973C344.995 28.6175 344.617 29.2873 344.617 30.2065C344.617 31.0868 344.885 31.7069 345.422 32.0671C345.958 32.4268 346.723 32.7675 347.715 33.0869L351.111 34.1075C352.223 34.4269 353.225 34.8167 354.119 35.277C355.012 35.7371 355.777 36.307 356.412 36.9865C357.048 37.6664 357.544 38.5067 357.901 39.5065C358.259 40.5067 358.438 41.7263 358.438 43.1659C358.438 44.6465 358.13 46.0263 357.514 47.3061C356.899 48.5861 356.005 49.6958 354.834 50.6354C353.662 51.5761 352.242 52.3158 350.574 52.8555C348.907 53.3958 347.02 53.6659 344.915 53.6659C343.962 53.6659 343.089 53.6355 342.295 53.5757C341.5 53.515 340.736 53.4154 340.001 53.2758C339.266 53.1354 338.541 52.966 337.827 52.7657C337.112 52.566 336.337 52.306 335.503 51.9857C335.583 50.9055 335.772 49.8155 336.069 48.7161C336.367 47.6166 336.754 46.546 337.231 45.5059C338.541 46.0263 339.783 46.4159 340.954 46.6758C342.126 46.9363 343.347 47.0667 344.617 47.0667C345.174 47.0667 345.779 47.016 346.434 46.916C347.09 46.8159 347.696 46.636 348.251 46.3761C348.808 46.116 349.275 45.7758 349.652 45.3562C350.029 44.9364 350.217 44.3864 350.217 43.7057C350.217 42.7467 349.929 42.0564 349.353 41.6364C348.777 41.2169 347.973 40.8457 346.941 40.5262L343.247 39.4467V39.4467ZM363.852 28.4071H359.98L359.681 27.207L370.821 12.8677H372.191V21.9273H379.399C379.519 22.5275 379.598 23.0674 379.638 23.5472C379.677 24.0277 379.698 24.527 379.698 25.0475C379.698 25.6072 379.677 26.1471 379.638 26.6672C379.598 27.1875 379.519 27.7673 379.399 28.4071H372.191V40.5869C372.191 41.8263 372.291 42.8261 372.489 43.5865C372.688 44.3454 372.976 44.9459 373.353 45.3862C373.731 45.826 374.197 46.1259 374.753 46.2859C375.309 46.4467 375.965 46.5264 376.719 46.5264C377.315 46.5264 377.9 46.4762 378.477 46.3761C379.052 46.2763 379.558 46.1862 379.995 46.1064C380.273 46.8654 380.472 47.6557 380.591 48.476C380.71 49.2959 380.77 50.0264 380.77 50.6661C380.77 51.1061 380.76 51.4756 380.74 51.776C380.72 52.0754 380.691 52.3665 380.65 52.6457C378.824 53.0863 376.938 53.3053 374.992 53.3053C371.377 53.3053 368.617 52.4559 366.711 50.7566C364.805 49.0562 363.852 46.2859 363.852 42.4464V28.4071V28.4071ZM83.0338 12.4297C84.7553 12.1889 86.4112 12.0673 88.0028 12.0673C89.6809 12.0673 91.3376 12.1889 92.9723 12.4297L103.62 34.6887L114.591 12.4297C115.925 12.1889 117.409 12.0673 119.044 12.0673C120.679 12.0673 122.248 12.1889 123.755 12.4297L125.949 53.3038C124.315 53.5454 122.766 53.6659 121.303 53.6659C119.839 53.6659 118.399 53.5454 116.979 53.3038L115.817 23.7512L106.395 44.1767C105.792 44.2573 105.169 44.3286 104.523 44.3879C103.878 44.4486 103.233 44.4785 102.587 44.4785C102.028 44.4785 101.469 44.4586 100.91 44.4183C100.351 44.378 99.7701 44.2972 99.1674 44.1767L90.391 23.3282L89.4875 53.3038C88.111 53.5454 86.7771 53.6659 85.486 53.6659C84.1091 53.6659 82.6888 53.5454 81.2271 53.3038L83.0338 12.4297" fill="white"/>
<path fill-rule="evenodd" clip-rule="evenodd" d="M49.6561 6.01199L49.9855 12.6982C55.3673 18.6864 57.4916 27.1669 54.8125 35.1372C50.8133 47.0352 37.6264 53.2896 25.3585 49.1068C13.0908 44.9245 6.38758 31.8884 10.3867 19.9906C13.0747 11.9937 19.9134 6.5462 27.8338 5.10389L32.1131 0.011503C18.7621 -0.35243 6.16624 7.99388 1.65949 21.4019C-3.87773 37.8759 4.89352 55.7515 21.2507 61.3287C37.6078 66.9055 55.3566 58.0714 60.8942 41.5973C65.3933 28.2109 60.4452 13.8989 49.6561 6.01199Z" fill="white"/>
<path fill-rule="evenodd" clip-rule="evenodd" d="M41.9886 25.7404L41.762 16.3938L41.5804 11.0153L41.4574 6.35552C41.4574 6.35552 41.4829 4.10902 41.4052 3.58095C41.3889 3.46974 41.3542 3.37924 41.3127 3.30062L41.2971 3.26726L41.2792 3.2385C41.1939 3.09047 41.0591 2.96967 40.8851 2.91023C40.7073 2.84964 40.523 2.86459 40.3631 2.934L40.3532 2.93822L40.2979 2.9666C40.2222 3.0038 40.1449 3.05174 40.0695 3.12537C39.6891 3.49735 38.3545 5.29785 38.3545 5.29785L35.4465 8.92376L32.0583 13.085L26.2409 20.3714C26.2409 20.3714 23.5714 23.7269 24.1613 27.8572C24.7512 31.9876 27.8 33.9997 30.1654 34.8061C32.5306 35.6126 36.1661 35.8794 39.1259 32.9593C42.0857 30.0393 41.9886 25.7404 41.9886 25.7404" fill="white"/>
<path d="M390.289 53.2485C387.132 53.2485 384.577 50.6747 384.577 47.4966C384.577 44.3193 387.132 41.7454 390.289 41.7454C393.441 41.7454 396 44.3193 396 47.4966C396 50.6747 393.441 53.2485 390.289 53.2485V53.2485ZM390.289 42.7723C387.699 42.7723 385.598 44.8908 385.598 47.4966C385.598 50.1028 387.699 52.2216 390.289 52.2216C392.874 52.2216 394.98 50.1028 394.98 47.4966C394.98 44.8908 392.874 42.7723 390.289 42.7723ZM389.306 45.3658V47.1694H390.338C390.902 47.1694 391.218 46.8358 391.218 46.2579C391.218 45.8855 391.092 45.6224 390.837 45.4813C390.708 45.4108 390.529 45.3658 390.091 45.3658H389.306ZM392.68 50.7835H391.709C391.633 50.7835 391.564 50.7448 391.53 50.6747L390.292 48.3314H389.306V50.5783C389.306 50.6934 389.219 50.7835 389.101 50.7835H388.248C388.134 50.7835 388.046 50.6934 388.046 50.5783V44.4157C388.046 44.2998 388.134 44.2101 388.248 44.2101H390.121C390.791 44.2101 391.085 44.2684 391.332 44.3646C392.052 44.6342 392.501 45.3464 392.501 46.2191C392.501 47.0092 392.113 47.6764 391.492 47.9848C391.511 48.017 391.53 48.0488 391.549 48.0871L392.855 50.482C392.889 50.5461 392.889 50.6233 392.851 50.6808C392.817 50.7448 392.748 50.7835 392.68 50.7835Z" fill="white"/>
</g>
<defs>
<clipPath id="clip0">
<rect width="396" height="63" fill="white"/>
</clipPath>
</defs>
</svg>
