<svg width="198" height="108" viewBox="0 0 198 108" fill="none" xmlns="http://www.w3.org/2000/svg">
<path fill-rule="evenodd" clip-rule="evenodd" d="M121.271 19.139H133.488V76.4561H121.267V19.139H121.271ZM11.4177 76.4253H23.4699V52.786C23.4699 48.8813 24.4345 44.0389 28.4161 44.0389C30.2416 44.0389 31.8211 44.5232 33.2892 45.7568C33.3353 45.8068 37.682 35.6839 37.632 35.73C34.9341 33.255 32.1132 32.667 30.0609 32.667C25.5952 32.667 21.875 35.3764 20.3761 39.431L18.0126 33.8699H11.4177V76.4253ZM140.333 76.4253H152.381V52.786C152.381 48.8813 154.687 44.2465 158.673 44.2465C162.662 44.2465 163 49.7806 163 52.417C163.023 52.4939 163.015 76.4215 163.015 76.4215H175.072V52.9628C175.072 47.6208 178.046 44.2964 181.274 44.2964C185.21 44.2964 185.809 48.6661 185.809 52.786L185.832 76.4215H197.842V49.0158C197.842 43.5393 195.963 32.5671 184.099 32.5671C178.461 32.5671 175.191 34.4387 172.539 39.1619C170.064 34.7154 165.544 32.5517 161.079 32.5517C158.64 32.5539 156.249 33.2293 154.17 34.5035C152.091 35.7777 150.404 37.6012 149.295 39.773L146.924 33.8737H140.337V76.4253H140.333ZM50.0762 49.8075H64.2575C63.9231 44.0927 60.5411 42.0712 57.2514 42.0712C53.9655 42.0712 50.4759 44.7422 50.0762 49.8075ZM61.206 66.9826C66.4712 66.9826 70.5372 64.5076 70.5372 64.5076L73.9423 73.9887C72.2282 74.9265 66.5634 77.3016 59.8225 77.3016C44.3191 77.3016 38.0893 67.0095 38.0893 54.6922C38.0893 43.0628 45.0685 32.4825 57.4935 32.4825C69.6994 32.4825 78.016 42.6439 75.8408 58.9504H49.9071C50.472 64.7536 55.4989 66.9826 61.2022 66.9826H61.206ZM90.2489 63.6352C90.2489 66.5215 94.9068 69.2847 98.8038 67.194C102.601 65.1571 102.286 61.9673 102.286 57.467C95.0913 57.467 90.2489 60.0726 90.2489 63.6352V63.6352ZM107.612 76.4407L105.06 71.4715C103.842 73.2701 99.8683 77.6705 92.5509 77.6705C84.4534 77.6705 78.3235 71.9134 78.3235 65.184C78.3235 58.347 83.066 49.3233 102.313 49.3233C102.313 44.7883 98.3925 43.0973 94.2496 43.0973C91.0828 43.0973 86.5709 44.4386 82.7239 48.0819L79.0614 37.7438C81.5902 36.1681 87.428 32.1328 96.1174 32.1328C109.069 32.1328 114.357 39.9729 114.357 52.6092V76.4445H107.612V76.4407V76.4407Z" fill="white"/>
</svg>
